<svg viewBox="0 0 558 558"><path fill="#ff0" d="M558 381.2l-145.6 42.1v-11.6l-9.3 2.7v11.2L349 441.5v-11l-5.6 1.6v10.6L247 470.9v-10.6l-16.1 4.2v10.6l-96.5 28.1v-10.6l-16.2 4.2v10.6l-96.4 28.1v-10.6l-10.6 3v-.4l-.4.1v-11.1l-10.6 3v23l10.6-3v11.1l11-3.1V558l96.4-27.6v-10.6l16.2-4.6v10.6l96.5-27.7v-10.6l16.1-4.6v10.6l96.5-27.7v-10.6l5.6-1.6v10.6l54.1-15.5v-11.2l9.3-2.7V446L558 404.2v-23z"/><path fill="#f0f" d="M558 358.2l-145.6 42.1v-11.6l-9.3 2.7v11.2L349 418.5v-11l-5.6 1.6v10.6L247 447.8v-10.6l-16.1 4.2V452l-96.5 28.1v-10.6l-16.2 4.2v10.6l-96.4 28.1v-10.6l-10.6 3v-.4l-.4.1v-11.1l-10.6 3v23l10.6-3v11.1l11-3.1V535l96.4-27.6v-10.6l16.2-4.6v10.6l96.5-27.7v-10.6l16.1-4.6v10.6l96.5-27.7v-10.6l5.6-1.6v10.6l54.1-15.5v-11.2l9.3-2.7V423L558 381.2v-23z"/><path fill="#0ff" d="M558 335.2l-145.6 42.1v-11.6l-9.3 2.7v11.2L349 395.5v-11l-5.6 1.6v10.6L247 424.8v-10.6l-16.1 4.2V429l-96.5 28.1v-10.6l-16.2 4.2v10.6l-96.4 28.1v-10.6l-10.6 3v-.4l-.4.1v-11.1l-10.6 3v23l10.6-3v11.1l11-3.1V512l96.4-27.6v-10.6l16.2-4.6v10.6l96.5-27.7v-10.6l16.1-4.6v10.6l96.5-27.7v-10.6l5.6-1.6v10.6l54.1-15.5v-11.2l9.3-2.7V400L558 358.2v-23z"/><path fill="none" d="M74.7 220.5l32.2-9.2v4.5l-10 2.9v44.9l10-2.9V307l-32.2 9.1v-42.3l-31.3 9v42.3l-32.2 9.2v-95.7l32.2-9.2v42.3l31.3-9v-42.2zm134.2 96.6l-74.5 21.4v10.6l-10.6 3v74.5l10.6-3v10.6l74.5-21.4v-10.6l10.6-3V367l-32.2 9.2V408l-31.3 9v-73.8l31.3-9V366l32.2-9.2v-32.2l-10.6 3v-10.5zm-10.7-182.4l-42.3 12.1v-31.3l42.3-12.1v-11l-42.3 12.1V73.1l42.3-12.2v-11l-74.4 21.3v95.7l74.4-21.3v-10.9zm-26.5 74.7l10.6-3V217l10.6-3v10.6l10.6-3v-22l-10.6 3V192l-10.6 3v-10.6l-10.6 3v-10.6l-32.1 9.2v10.6l-10.6 3v10.6l-10.6 3v10.6l-10.6 3v22l10.6-3v-10.6l10.6-3v-10.6l10.6-3 .4 89.9 31.3-9 .4-90.1zm75.7-99l10.6-3V96.8l20.8-6v10.6l10.6-3v21.2l32.2-9.2V14.6l-32.2 9.2v52.9l-10.2 2.9V69.1l-21.6 6.2v10.5l-10.2 2.9V35.8l-32.2 9.3v95.7l32.2-9.2v-21.2zm-151.2 239l-74.5 21.4v10.6l-10.6 3v32.2l10.6-3v10.5l31.8-9.1v10.6l21.1-6.1v20.7l-20.7 5.9v-10.6l-10.6 3v-10.6l-32.1 9.3v21.6l10.6-3v10.6L96.2 445v-10.6l10.6-3v-32.2l-10.6 3v-10.5l-31.8 9.1v-10.6l-21.1 6.1v-20.8l20.7-5.9v10.6l10.6-3v10.6l32.2-9.2V357l-10.6 3v-10.6zm252.9-154.6l31.3-9v42.3l32.2-9.2v-95.7l-32.2 9.2v42.3l-31.3 9v-42.3l-32.2 9.2v95.7l32.2-9.2v-42.3zm112.5 145.4l74.4-21.3v-11L493.7 320v-31.3l42.3-12.1v-11l-42.3 12.1v-31.3l42.3-12.1v-11l-74.4 21.3v95.6zM434 263l10.6-3v32.1l-21.2 6.1v10.1l10.6-3V316l10.6-3v32.2l-32.2 9.2v-31.8l-10.6 3V315l-20.7 5.9v42.3l-32.2 9.2v-95.7l85-24.4V263h.1zm-21.6 6.6l-31.3 9V310l31.3-9v-31.4zM74.7 127.8l-10.2 2.9v-10.6l-10.5 3v-10.6l-10.6 3V94.4l-32.2 9.3v95.7l32.2-9.2v-52.9l10.2-2.9v10.5l10.5-3v10.6l10.6-3v31.7l32.2-9.2V76.1l-32.2 9.2v42.5zm246.7 167.6l10.6-3v74.5l-10.6 3v10.6L247 401.9v-10.7l-10.6 3v-74.5l10.6-3v-10.6l74.5-21.4v10.7zm-21.6 6.6l-31.3 9v73.6l31.3-9V302zM215 275.7l63.9-18.3v-10.6l10.2-2.9v10.6l11-3.2V198l-42.7 12.3v11l10.6-3v31.3l-31.3 9V185l31.3-9v21.2l32.2-9.2v-21.6l-10.6 3v-10.6l-74.5 21.4-.2 15.8 10.6-3v44.9l-21 6v24.2l10.6-3v10.6h-.1z"/><path d="M268.6 310.9l31.3-9v73.6l-31.3 9v-73.6zm112.5-.9l31.3-9v-31.3l-31.3 9V310zM547 219.7l11-3.2v118.7l-145.5 41.7v-11.2l-9.3 2.7v11.2L349 395.1v-10.6l-5.6 1.6v10.6L247 424.4v-10.6l-16.2 4.6V429l-96.5 27.7v-10.6l-16.2 4.6v10.6L21.6 489v-10.6l-11 3.1v-11.1l-10.6 3V376l10.6-3v-10.6l96.5-27.7v10.6l16.2-4.6v-10.6l16.6-4.8V320l-65.3 18.7v-11.2l-9.3 2.7v11.2L11.2 357v-11.2L.2 349V230.4l54.2-15.5v11.2l9.3-2.7v-11.2l54.3-15.6v-5.3l-43.3 12.3v-11.2l-9.3 2.7v11.2l-54.2 15.6v-11.2l-11 3.2V95.4l54.2-15.5V91l9.3-2.7V77.1l194.7-55.8v11.2l11-3.2v31.2l8.9-2.6V15.5l54-15.5v11.2l11-3.2v118.6l-54.1 15.5v-11.2l-11 3.2v-10l-8.9 2.6v21.2l-75.7 21.8v10.6l10.3-3v-5.5l96.5-27.7v10.6l5.6-1.6v-10.6l54.2-15.5v11.1l9.3-2.7v-11.2l54.2-15.5v11.2l11-3.2v118.6l-54.2 15.5v-11.2l-9.3 2.7v11.2L215 298.3v-10.6l-10.6 3v-.5l-.4.1v-10.6l-10.6 3-.2 27.3 26.6-7.6V313l16.2-4.6v-10.6l96.5-27.7v10.6l5.6-1.6v-10.6l107-30.7v10.6l5.6-1.6v-10.6l96.4-27.6v11.2l-.1-.1zm-230 26.7l32.2-9.2v-42.3l31.3-9v42.3l32.2-9.2v-95.7l-32.2 9.2v42.3l-31.3 9v-42.3l-32.2 9.2v95.7zm-112.6 21.7l10.6-3v10.6l63.9-18.3v-10.6l10.2-2.9v10.6l11-3.2V198l-42.7 12.3v11l10.6-3v31.3l-31.3 9V185l31.3-9v21.2l32.2-9.2v-21.6l-10.6 3v-10.6l-74.5 21.4-.2 15.8 10.6-3v44.9l-21 6v24.2h-.1zm-97.6-192l-32.2 9.2v42.3l-10.2 2.9V120l-10.5 3v-10.6l-10.6 3v-21l-32.1 9.3v95.7l32.2-9.2v-52.9l10.2-2.9v10.5l10.5-3v10.6l10.6-3v31.7l32.2-9.2-.1-95.9zm0 280.8l-10.6 3v-10.6l-74.5 21.4v10.6l-10.6 3v32.2l10.6-3V424l31.8-9.1v10.6l21.1-6.1v20.8l-20.7 5.9v-10.6l-10.6 3v-10.6l-32.1 9.3v21.6l10.6-3v10.6L96.2 445v-10.6l10.6-3v-32.2l-10.6 3v-10.5l-31.8 9.1v-10.6l-21.1 6.1v-20.8l20.7-5.9v10.6l10.6-3v10.6l32.2-9.2v-21.7zm108.4-216.1l32.2-9.2v-21.2l10.6-3V96.8l20.8-6v10.6l10.6-3v21.2l32.2-9.2V14.6l-32.2 9.2v52.9l-10.2 2.9V69.1l-21.6 6.2v10.5l-10.2 2.9V35.8l-32.2 9.3v95.7zM123.8 167l74.4-21.3v-11l-42.3 12.1v-31.3l42.3-12.1v-11l-42.3 12.1V73.1l42.3-12.2v-11l-74.4 21.3V167zm-17 44.2l-32.2 9.2v42.3l-31.3 9v-42.3l-32.1 9.3v95.7l32.2-9.2v-42.3l31.3-9v42.3l32.2-9.2v-46.3l-10 2.9v-44.9l10-2.9-.1-4.6zm64.5 88.4l.4-90.2 10.6-3V217l10.6-3v10.6l10.6-3v-22l-10.6 3V192l-10.6 3v-10.6l-10.6 3v-10.6l-32.1 9.2v10.6l-10.6 3v10.6l-10.6 3v10.6l-10.6 3v22l10.6-3v-10.6l10.6-3v-10.6l10.6-3 .4 89.9 31.3-8.9zm48.1 25l-10.6 3V317l-74.5 21.4V349l-10.6 3v74.5l10.6-3v10.6l74.5-21.4v-10.6l10.6-3v-32.2l-32.2 9.2v31.8l-31.3 9v-73.7l31.3-9V366l32.2-9.2v-32.2zM332 292.3l-10.6 3v-10.6L247 306.1v10.6l-10.6 3v74.5l10.6-3v10.6l74.5-21.4v-10.6l10.6-3v-74.5h-.1zm112.6-32.4l-10.6 3v-10.6l-85 24.4v95.7l32.2-9.2v-42.3l20.7-5.9v10.6l10.6-3v31.8l32.2-9.2V313l-10.6 3v-10.6l-10.6 3v-10.1l21.2-6.1V260l-.1-.1zm91.4-36.7l-74.4 21.3v95.7l74.4-21.3v-11L493.7 320v-31.3l42.3-12.1v-11l-42.3 12.1v-31.3l42.3-12.1v-11.1z"/></svg>